<svg xmlns="http://www.w3.org/2000/svg" version="1.1" xmlns:xlink="http://www.w3.org/1999/xlink" xmlns:svgjs="http://svgjs.dev/svgjs" width="1500" height="1500" viewBox="0 0 1500 1500"><g transform="matrix(1,0,0,1,-0.21332335329316265,-0.21332335329350371)"><svg viewBox="0 0 334 334" data-background-color="#000000" preserveAspectRatio="xMidYMid meet" height="1500" width="1500" xmlns="http://www.w3.org/2000/svg" xmlns:xlink="http://www.w3.org/1999/xlink"><g id="tight-bounds" transform="matrix(1,0,0,1,0.04749999999998522,0.04750000000001364)"><svg viewBox="0 0 333.90454557049503 333.90454557049503" height="333.90454557049503" width="333.90454557049503"><rect width="333.905" height="333.905" fill="url(#8a98d17d-30f3-4446-89c9-7ef1554741c3)" mask="url(#ca9ddedb-bfdb-4440-a599-599c13a1634d)" data-fill-palette-color="tertiary"></rect><g><svg></svg></g><g><svg viewBox="0 0 333.90454557049503 333.90454557049503" height="333.90454557049503" width="333.90454557049503"><g><path d="M0 166.952c0-92.205 74.747-166.952 166.952-166.952 92.205 0 166.952 74.747 166.953 166.952 0 92.205-74.747 166.952-166.953 166.953-92.205 0-166.952-74.747-166.952-166.953zM166.952 316.63c82.665 0 149.677-67.013 149.678-149.678 0-82.665-67.013-149.677-149.678-149.677-82.665 0-149.677 67.013-149.677 149.677 0 82.665 67.013 149.677 149.677 149.678z" data-fill-palette-color="tertiary" fill="url(#8a98d17d-30f3-4446-89c9-7ef1554741c3)" stroke="transparent"></path><ellipse rx="160.27418187383762" ry="160.27418187383762" cx="166.95227278524752" cy="166.95227278524752" fill="url(#8a98d17d-30f3-4446-89c9-7ef1554741c3)" stroke="transparent" stroke-width="0" fill-opacity="1" data-fill-palette-color="tertiary"></ellipse></g><g transform="matrix(1,0,0,1,101.89468897225075,71.17305217166896)"><svg viewBox="0 0 130.11516762599354 191.55844122715712" height="191.55844122715712" width="130.11516762599354"><g><svg viewBox="0 0 130.11516762599354 191.55844122715712" height="191.55844122715712" width="130.11516762599354"><g><svg viewBox="0 0 130.11516762599354 191.55844122715712" height="191.55844122715712" width="130.11516762599354"><g><svg viewBox="0 0 130.11516762599354 191.55844122715712" height="191.55844122715712" width="130.11516762599354"><g id="textblocktransform"><svg viewBox="0 0 130.11516762599354 191.55844122715712" height="191.55844122715712" width="130.11516762599354" id="textblock"><g><svg viewBox="0 0 130.11516762599354 191.55844122715712" height="191.55844122715712" width="130.11516762599354"><g transform="matrix(1,0,0,1,0,0)"><svg width="130.11516762599354" viewBox="4 -39.7 27 39.75000000000001" height="191.55844122715712" data-palette-color="#000000"><path d="M13.3-22.85L22.95-22.85Q24.25-22.85 25.65-22.3 27.05-21.75 28.35-20.85L28.35-20.85 28.3-20.85Q29.6-19.95 30.3-18.4 31-16.85 31-14.85L31-14.85 31-8Q31-3.95 28.3-1.95L28.3-1.95Q27-1 25.63-0.48 24.25 0.05 22.95 0.05L22.95 0.05 12.05 0.05Q10.75 0.05 9.38-0.48 8-1 6.7-1.95L6.7-1.95Q4-3.95 4-8L4-8 4-11.3Q4-13.65 6.95-13.65L6.95-13.65Q9.95-13.65 9.95-11.3L9.95-11.3 9.95-8.4Q9.95-7.1 10.7-6.05 11.45-5 13.3-5L13.3-5 21.7-5Q23.55-5 24.3-6.05 25.05-7.1 25.05-8.4L25.05-8.4 25.05-14.45Q25.05-15.7 24.3-16.78 23.55-17.85 21.7-17.85L21.7-17.85 12.05-17.85Q9.45-17.85 6.7-19.75L6.7-19.75Q4-21.85 4-25.8L4-25.8 4-31.75Q4-33.75 4.7-35.27 5.4-36.8 6.7-37.75L6.7-37.75 6.65-37.75Q7.95-38.6 9.35-39.15 10.75-39.7 12.05-39.7L12.05-39.7 22.95-39.7Q24.25-39.7 25.65-39.15 27.05-38.6 28.35-37.75L28.35-37.75 28.3-37.75Q29.6-36.8 30.3-35.27 31-33.75 31-31.75L31-31.75 31-28.8Q31-26.45 28-26.45L28-26.45Q25.05-26.45 25.05-28.8L25.05-28.8 25.05-31.3Q25.05-32.55 24.3-33.6 23.55-34.65 21.7-34.65L21.7-34.65 13.3-34.65Q11.45-34.65 10.7-33.6 9.95-32.55 9.95-31.3L9.95-31.3 9.95-26.2Q9.95-24.9 10.7-23.88 11.45-22.85 13.3-22.85L13.3-22.85Z" opacity="1" transform="matrix(1,0,0,1,0,0)" fill="#000000" class="wordmark-text-0" data-fill-palette-color="quaternary" id="text-0"></path></svg></g></svg></g></svg></g></svg></g><g></g></svg></g></svg></g></svg></g></svg></g><defs></defs><mask id="ca9ddedb-bfdb-4440-a599-599c13a1634d"><g id="SvgjsG1681"><svg viewBox="0 0 333.90454557049503 333.90454557049503" height="333.90454557049503" width="333.90454557049503"><g><svg></svg></g><g><svg viewBox="0 0 333.90454557049503 333.90454557049503" height="333.90454557049503" width="333.90454557049503"><g><path d="M0 166.952c0-92.205 74.747-166.952 166.952-166.952 92.205 0 166.952 74.747 166.953 166.952 0 92.205-74.747 166.952-166.953 166.953-92.205 0-166.952-74.747-166.952-166.953zM166.952 316.63c82.665 0 149.677-67.013 149.678-149.678 0-82.665-67.013-149.677-149.678-149.677-82.665 0-149.677 67.013-149.677 149.677 0 82.665 67.013 149.677 149.677 149.678z" fill="white" stroke="transparent"></path><ellipse rx="160.27418187383762" ry="160.27418187383762" cx="166.95227278524752" cy="166.95227278524752" fill="white" stroke="transparent" stroke-width="0" fill-opacity="1"></ellipse></g><g transform="matrix(1,0,0,1,101.89468897225075,71.17305217166896)"><svg viewBox="0 0 130.11516762599354 191.55844122715712" height="191.55844122715712" width="130.11516762599354"><g><svg viewBox="0 0 130.11516762599354 191.55844122715712" height="191.55844122715712" width="130.11516762599354"><g><svg viewBox="0 0 130.11516762599354 191.55844122715712" height="191.55844122715712" width="130.11516762599354"><g><svg viewBox="0 0 130.11516762599354 191.55844122715712" height="191.55844122715712" width="130.11516762599354"><g id="SvgjsG1680"><svg viewBox="0 0 130.11516762599354 191.55844122715712" height="191.55844122715712" width="130.11516762599354" id="SvgjsSvg1679"><g><svg viewBox="0 0 130.11516762599354 191.55844122715712" height="191.55844122715712" width="130.11516762599354"><g transform="matrix(1,0,0,1,0,0)"><svg width="130.11516762599354" viewBox="4 -39.7 27 39.75000000000001" height="191.55844122715712" data-palette-color="#000000"><path d="M13.3-22.85L22.95-22.85Q24.25-22.85 25.65-22.3 27.05-21.75 28.35-20.85L28.35-20.85 28.3-20.85Q29.6-19.95 30.3-18.4 31-16.85 31-14.85L31-14.85 31-8Q31-3.95 28.3-1.95L28.3-1.95Q27-1 25.63-0.48 24.25 0.05 22.95 0.05L22.95 0.05 12.05 0.05Q10.75 0.05 9.38-0.48 8-1 6.7-1.95L6.7-1.95Q4-3.95 4-8L4-8 4-11.3Q4-13.65 6.95-13.65L6.95-13.65Q9.95-13.65 9.95-11.3L9.95-11.3 9.95-8.4Q9.95-7.1 10.7-6.05 11.45-5 13.3-5L13.3-5 21.7-5Q23.55-5 24.3-6.05 25.05-7.1 25.05-8.4L25.05-8.4 25.05-14.45Q25.05-15.7 24.3-16.78 23.55-17.85 21.7-17.85L21.7-17.85 12.05-17.85Q9.45-17.85 6.7-19.75L6.7-19.75Q4-21.85 4-25.8L4-25.8 4-31.75Q4-33.75 4.7-35.27 5.4-36.8 6.7-37.75L6.7-37.75 6.65-37.75Q7.95-38.6 9.35-39.15 10.75-39.7 12.05-39.7L12.05-39.7 22.95-39.7Q24.25-39.7 25.65-39.15 27.05-38.6 28.35-37.75L28.35-37.75 28.3-37.75Q29.6-36.8 30.3-35.27 31-33.75 31-31.75L31-31.75 31-28.8Q31-26.45 28-26.45L28-26.45Q25.05-26.45 25.05-28.8L25.05-28.8 25.05-31.3Q25.05-32.55 24.3-33.6 23.55-34.65 21.7-34.65L21.7-34.65 13.3-34.65Q11.45-34.65 10.7-33.6 9.95-32.55 9.95-31.3L9.95-31.3 9.95-26.2Q9.95-24.9 10.7-23.88 11.45-22.85 13.3-22.85L13.3-22.85Z" opacity="1" transform="matrix(1,0,0,1,0,0)" fill="black" class="wordmark-text-0" id="SvgjsPath1678"></path></svg></g></svg></g></svg></g></svg></g><g></g></svg></g></svg></g></svg></g></svg></g><defs><mask></mask></defs></svg><rect width="333.90454557049503" height="333.90454557049503" fill="black" stroke="none" visibility="hidden"></rect></g></mask><linearGradient x1="0.054" x2="0.941" y1="0.5" y2="0.5" id="8a98d17d-30f3-4446-89c9-7ef1554741c3"><stop stop-color="#9c7945" offset="0"></stop><stop stop-color="#faf3aa" offset="0.498"></stop><stop stop-color="#9c7945" offset="1"></stop></linearGradient></svg><rect width="333.90454557049503" height="333.90454557049503" fill="none" stroke="none" visibility="hidden"></rect></g></svg></g></svg>